<svg width="32" height="32" viewBox="0 0 32 32" fill="none" xmlns="http://www.w3.org/2000/svg">
  <defs>
    <linearGradient id="rs-logo-grad" x1="0%" y1="0%" x2="100%" y2="100%">
      <stop offset="0%" stop-color="#6366f1" />
      <stop offset="100%" stop-color="#a855f7" />
    </linearGradient>
    <linearGradient id="rs-logo-grad-light" x1="0%" y1="0%" x2="100%" y2="100%">
      <stop offset="0%" stop-color="#818cf8" stop-opacity="0.15" />
      <stop offset="100%" stop-color="#c084fc" stop-opacity="0.15" />
    </linearGradient>
  </defs>

  <path d="M 6 10 C 6 7.79086 7.79086 6 10 6 H 20 L 26 12 V 22 C 26 24.2091 24.2091 26 22 26 H 10 C 7.79086 26 6 24.2091 6 22 V 10 Z" fill="url(#rs-logo-grad-light)" stroke="url(#rs-logo-grad)" stroke-width="1.5" stroke-opacity="0.3" />
  <path d="M 20 6 V 10 C 20 11.1046 20.8954 12 22 12 H 26" stroke="url(#rs-logo-grad)" stroke-width="1.5" stroke-opacity="0.3" stroke-linejoin="round" fill="none" />

  <g transform="translate(1, -1)">
    <path d="M 12 11 V 23" stroke="url(#rs-logo-grad)" stroke-width="2.5" stroke-linecap="round" />
    <path d="M 12 11 H 16.5 A 2.5 2.5 0 0 1 16.5 16 H 15.5 A 3.5 3.5 0 0 0 15.5 23 H 20" stroke="url(#rs-logo-grad)" stroke-width="2.5" stroke-linecap="round" stroke-linejoin="round" fill="none" />
  </g>
</svg>